<?xml version="1.0" encoding="UTF-8" standalone="no"?>
<svg
   xmlns:dc="http://purl.org/dc/elements/1.1/"
   xmlns:cc="http://creativecommons.org/ns#"
   xmlns:rdf="http://www.w3.org/1999/02/22-rdf-syntax-ns#"
   xmlns:svg="http://www.w3.org/2000/svg"
   xmlns="http://www.w3.org/2000/svg"
   id="svg24"
   height="420pt"
   width="1520pt"
   viewbox="0 0 1909 549"
   version="1.1">
  <metadata
     id="metadata30">
    <rdf:RDF>
      <cc:Work
         rdf:about="">
        <dc:format>image/svg+xml</dc:format>
        <dc:type
           rdf:resource="http://purl.org/dc/dcmitype/StillImage" />
        <dc:title></dc:title>
      </cc:Work>
    </rdf:RDF>
  </metadata>
  <defs
     id="defs28" />
  <path
     style="fill:#484848"
     id="path4"
     d="m 1487.092,14.270179 c 16.63,-0.08 33.27,-0.01 49.9,-0.03 -0.01,5.380013 -0.01,10.760027 0,16.140042 -10.09,0.21 -20.33,-0.51 -30.36,0.550003 -6.52,0.63 -12.4,3.540007 -16.89,8.27002 -3.94,4.620009 -5.42,11.390024 -5.48,17.330039 0.01,32.610137 0,65.220287 0.01,97.840297 18.96,0 37.93,-0.02 56.9,0 -0.01,5.38 -0.01,10.76 -0.01,16.14 -18.94,0 -37.91,0 -56.85,-0.02 -0.1,80.72 -0.03,161.45 -0.04,242.17 -22.29,0.02 -44.59,0.01 -66.88,0.01 0.01,-109.04 0.02,-218.09 -0.01,-327.120189 -0.06,-13.750065 2.33,-29.080108 9.87,-40.840135 4.69,-6.670015 9.64,-12.960032 16.55,-17.450043 12.78,-8.900025 27.85,-12.660034 43.29,-12.990034 z" />
  <path
     style="fill:#484848"
     id="path6"
     d="m 948.02202,16.640185 c 22.29002,-0.03 44.59001,-0.01 66.88998,0 0.02,79.840287 -0.07,159.710395 0.05,239.550395 8.68,-8.29 18.33,-15.43 26.99,-23.77 7.91,-6.77 15.96,-13.36 23.56,-20.49 7.6,-6.38 15.11,-12.85 22.48,-19.5 7.72,-6.64 15.5,-13.15 22.99,-20.02 7.4,-6.35 14.85,-12.64 22.17,-19.09 8.29,0.05 16.59,-0.15 24.87,0.12 -2.69,3.05 -5.94,5.34 -8.97,8.01 -5.55,4.79 -11.16,9.5 -16.55,14.47 -13.59,11.41 -26.72,23.32 -40.32,34.72 -4.7,4.24 -9.37,8.5 -14.31,12.46 2.5,3.37 5.08,6.74 7.43,10.21 4.22,6.36 9.25,12.14 13.59,18.43 4.53,6.73 9.44,13.22 14.38,19.65 7.69,10.91 15.68,21.64 23.58,32.39 6.16,8.21 11.7,16.83 18.21,24.79 11.19,16.06 23.21,31.5 34.42,47.56 4.8,6.24 9.54,12.52 13.96,19.04 4.13,5.98 8.75,11.58 12.97,17.48 -27.76,0.04 -55.53,0.02 -83.29,0.01 -4.58,-6.45 -9.68,-12.48 -14.06,-19.08 -5.32,-7.94 -11.47,-15.23 -16.83,-23.13 -9.95,-13.72 -20.16,-27.28 -29.87,-41.16 -3.79,-5.26 -7.91,-10.17 -11.51,-15.58 -5.88,-8.69 -12.55,-16.78 -18.49,-25.43 -5.14,-6.92 -10.07,-13.99 -15.21,-20.91 -4.31,3.18 -7.98,7.07 -12.22,10.33 -0.06,44.99 -0.01,89.98 -0.03,134.97 -22.29997,0 -44.58996,0.01 -66.88998,-0.01 0,-132 0,-264.01 0.01,-396.020395 z" />
  <path
     style="fill:#484848"
     id="path8"
     d="m 1307.542,27.040213 c 8.72,-1.200003 17.75,0.85 24.75,6.270015 5.03,4.02001 9.48,9.230022 11.85,15.280037 3.72,9.840021 2.76,21.230055 -2.81,30.190098 -6.7,10.170057 -18.87,17.370109 -31.25,16.350099 -10.84,-0.70001 -20.47,-7.240045 -26.7,-15.880099 -7.08,-10.940046 -7.1,-26.310089 0.36,-37.080113 5.9,-7.920019 13.68,-14.020034 23.8,-15.130037 z" />
  <path
     style="fill:#484848"
     id="path10"
     d="m 11.482086,42.880253 c 2.86,-0.220003 5.75,-0.09 8.62,-0.110003 44.329988,0.01 88.669984,-0.01 132.999984,0.01 19.29,0.61 39.44,3.429999 57.51,10.420014 13.54,5.730015 27.98,12.81003 38.11,23.730069 4.08,4.07002 7.98,7.990048 11.17,12.85008 5.7,8.860049 9.7,18.570087 12.48,28.720127 3.2,13.69003 2.94,27.85003 0.01,41.57003 -3.77,13.75 -9.91,26.64 -19.35,37.42 -6.47,7.05 -14.04,12.81 -22.11,17.9 -14.26,8.04 -30.76,12.75 -47.18,12.65 3.46,5.56 6.3,11.43 10.03,16.83 5.99,10.37 11.83,20.82 18.01,31.09 7.06,11.39 13.16,23.27 20.22,34.65 7.7,12.73 14.62,25.93 22.61,38.47 5,9.24 10.52,18.18 15.64,27.36 7.53,11.83 13.88,24.33 21.31,36.23 -27.94,0.03 -55.87,-0.07 -83.8,0.05 -6.81,-10.92 -12.52,-22.49 -19.51,-33.29 -7.12,-12.5 -14.13,-25.09 -21.63,-37.37 -5.11,-8.9 -10.03,-17.95 -15.4,-26.7 -7.79,-12.91 -14.71,-26.36 -22.77,-39.1 -4.7,-8.59 -9.8,-16.95 -14.53,-25.53 -2.88,-5.39 -6.56,-10.24 -9.31,-15.7 -4.03,-7.56 -8.669997,-14.79 -12.729997,-22.34 16.069997,-0.19 32.149997,-0.04 48.219997,-0.07 10.48,0.13 20.74,-0.94 30.23,-5.69 12.38,-5.99 21.82,-17.25 27.52,-29.57 6.43,-14.24 9.08,-30.23 7.97,-45.79 -1.12,-15.49005 -5.51,-30.3801 -14.79,-42.98016 -4.73,-6.380035 -10.74,-11.260077 -17.24,-15.730091 -9.18,-5.830025 -19.9,-8.250028 -30.69,-8.400028 -20.02,0.01 -40.03,0 -60.049997,0 -0.03,116.070279 -0.02,232.140279 -0.01,348.210279 -23.879999,0 -47.759987,0.01 -71.639987,-0.01 0,-120.37 0,-240.74 0,-361.110309 0.02,-2.880006 -0.13,-5.790012 0.08,-8.670011 z" />
  <path
     style="fill:#61bdc5"
     id="path12"
     d="m 367.56207,69.20032 c 4.68,-1.120013 9.57,-0.710003 14.08,0.870003 9.19,3.370006 15.98,12.630062 15.99,22.480126 0.31,8.730031 -4.49,17.150061 -11.94,21.620081 -6.97,4.18002 -15.93,4.65002 -23.24,1.04 -8.59,-4.09002 -14.19,-13.12005 -13.88,-22.660081 0.11,-10.970074 8.26,-21.020123 18.99,-23.350129 z" />
  <path
     style="fill:#61bdc5"
     id="path14"
     d="m 560.56207,69.12032 c 6.2,-1.010003 12.55,-0.42 17.93,3.030006 5.93,3.510017 10.09,9.650049 11.36,16.400094 1.4,6.370042 -0.34,13.39006 -4.04,18.69007 -5.43,7.77004 -15.39,11.89006 -24.71,9.95005 -11.07,-2.01001 -19.98,-12.29005 -19.84,-23.640091 -0.54,-11.520064 8.09,-22.140123 19.3,-24.430129 z" />
  <path
     style="fill:#484848"
     id="path16"
     d="m 774.11203,149.30058 c 15.85,-0.52 33.23,-0.04 48.49,4.75 22.73003,6.9 42.51003,21.1 58.24003,38.68 -4.16,4.3 -8.76,8.3 -13.44,12.03 -4.41,-4.99 -9.11,-10 -14.13,-14.4 -7.21,-6.12 -15.33,-11.26 -24.05003,-14.93 -10.37,-5 -22.73,-6.67 -34.13,-7.07 -18.76,-0.74 -37.48,3.62 -53.3,13.89 -9.46,6.15 -16.86996,14.59 -22.86996,24.07 -3.65,5.7 -6.14,11.8 -9.14,17.89 -9.26,22.4 -10.67,46.4 -10.2,70.34 0.49,20.11 3.57,42.28 13.48,60.09 5.6,11.45 13.85,22.31 24.51996,29.46 15.54,10.53 34.89,15.16 53.52,14.81 11.25,0.27 22.78,-1.23 33.42,-4.98 20.41003,-7.33 38.12003,-21.87 53.16003,-37.18 4.61,3.88 9.04,7.96 13.63,11.85 -3.1,2.97 -5.84,6.26 -8.88,9.28 -6.63,6.42 -13.7,12.34 -21.02,17.96 -9.8,6.75 -20.35,12.39 -31.53003,16.49 -11.27,4.82 -23.05,6.86 -35.21,7.76 -22.38,0.95 -46.41,-0.75 -67.58996,-8.53 -10.16,-3.27 -19.88,-7.62 -29.21,-12.78 -27.75,-15.92 -50.15,-41.48 -59.73,-72.25 -5.4,-16.58 -6.56,-33.64 -5.47,-50.95 1.24,-17.79 6.36,-35.14 14.53,-50.96 4.79,-7.8 9.33,-15.64 15.34,-22.61 10.25,-12.71 23.02,-22.6 36.81,-31.18 12.32,-6.83 25.31,-12.31 38.94996,-15.89 11.43,-3.62 23.88,-4.85 35.81,-5.64 z" />
  <path
     style="fill:#fc885f"
     id="path18"
     d="m 405.80207,154.00058 c 0.08,54.18 0.02,108.37 0.03,162.55 -0.19,5.7 0.38,11.33 0.86,16.99 1.52,16.69 9,32.65 21.44,43.96 9.62,8.59 21.55,13.7 34.17,15.96 13.04,2.46 26.94,2.71 39.87,-0.54 17.73,-4.07 34.51,-14.38 44.4,-29.89 8.37,-12.28 11.87,-26.75 12.04,-41.48 0.03,-55.84 -0.02,-111.69 0.03,-167.54 5.3,-0.04 10.59,-0.04 15.89,0 0.09,56.19 0.03,112.39 0.03,168.57 -0.32,11.25 -2.25,22.65 -6.32,33.17 -7.46,18.28 -20.8,34.04 -37.76,44.19 -15,9.3 -33.13,14.13 -50.56,15.94 -15.67,1.06 -31.35,0.57 -46.82,-2.3 -16.95,-2.69 -33.32,-8.02 -47.99,-17.06 -14.79,-8.74 -26.93,-21.55 -35.3,-36.53 -7.13,-13.27 -9.41,-27.55 -10.03,-42.44 -0.03,-54.47 0.03,-108.96 -0.03,-163.42 22.01,-0.31 44.04,-0.05 66.05,-0.13 z" />
  <path
     style="fill:#484848"
     id="path20"
     d="m 1279.232,153.33058 c 22.17,0.01 44.35,-0.09 66.52,0.04 -0.07,86.43 -0.01,172.87 -0.03,259.29 -22.17,0.02 -44.33,0 -66.5,0.02 0,-86.45 -0.01,-172.9 0.01,-259.35 z" />
  <path
     style="fill:#484848"
     id="path22"
     d="m 1866.072,160.25058 c 6.21,-0.11 12.44,0 18.65,0 -5.74,9.45 -9.97,19.7 -15.75,29.14 -4.59,9.05 -9.45,17.96 -13.94,27.06 -3.27,6.65 -7.42,12.79 -10.53,19.54 -5.94,10.8 -11.16,21.96 -17.27,32.68 -4.91,9.71 -10.23,19.2 -15.08,28.94 -7.13,12.13 -12.97,24.94 -19.68,37.32 -7.65,13.5 -14.64,27.44 -21.74,41.25 -5.13,8.73 -9.44,17.85 -14.27,26.74 -5.46,10.83 -11.71,21.19 -16.98,32.11 -6.97,14.17 -15.13,27.67 -22.04,41.87 -7.52,14.45 -15.37,28.72 -22.78,43.23 -6.28,-0.02 -12.56,-0.03 -18.83,0.01 4.84,-9.71 9.79,-19.33 15.12,-28.77 8.55,-15.82 16.55,-31.9 25.19,-47.68 4.67,-8.43 8.58,-17.2 13.61,-25.44 -7.83,-14.04 -14.92,-28.49 -22.88,-42.46 -4.32,-8.61 -9.04,-17.01 -13.42,-25.59 -9.97,-17.26 -18.43,-35.36 -28.38,-52.62 -4.95,-9.68 -10.24,-19.18 -15.23,-28.84 -4.96,-8.24 -8.97,-16.95 -13.55,-25.4 -5.79,-10.88 -12.09,-21.42 -17.48,-32.51 -8.49,-16.3 -17.75,-32.36 -25.94,-48.83 15.4,-0.25 30.84,0.31 46.23,-0.39 9.66,0.03 19.33,-0.02 28.99,0.04 7.12,12.38 13.09,25.39 20.06,37.85 5.53,9.64 10.21,19.71 15.56,29.45 4.24,8.93 9.53,17.27 13.79,26.2 5.91,11.36 12.07,22.63 18.05,33.95 7.96,16.47 17.44,32.1 25.46,48.54 1.87,3.44 3.43,7.19 5.78,10.31 8.48,-15.53 16.11,-31.54 24.73,-46.98 4.99,-9.71 9.91,-19.47 14.85,-29.21 7.83,-13.69 14.59,-28.03 21.93,-42 7.85,-14.26 14.82,-29.02 22.79,-43.22 4.26,-7.86 7.91,-16.02 12.15,-23.88 0.75,-1.18 1.14,-2.5 2.83,-2.41 z" />
</svg>
